<?xml version="1.0" encoding="utf-8"?>
<!-- Generator: Adobe Illustrator 23.0.3, SVG Export Plug-In . SVG Version: 6.00 Build 0)  -->
<svg version="1.1" xmlns="http://www.w3.org/2000/svg" xmlns:xlink="http://www.w3.org/1999/xlink" x="0px" y="0px"
	 viewBox="0 0 216 101.3" style="enable-background:new 0 0 216 101.3;" xml:space="preserve">
<style type="text/css">
	.st0{display:none;}
	.st1{display:inline;fill:#6A2C3E;}
	.st2{fill:#CFB1AA;}
	.st3{fill:#C28285;}
	.st4{fill:#6A2C3E;}
	.st5{fill:#9F8876;}
	.st6{fill:#82D4EB;}
	.st7{fill:none;}
</style>
<g id="Layer_8" class="st0">
	<rect x="0" y="-0.2" class="st1" width="216" height="101.4"/>
</g>
<g id="Text">
	<path class="st2" d="M91,44"/>
	<path class="st2" d="M90.7,33.3"/>
	<path class="st2" d="M60.1,34.7"/>
	<path class="st3" d="M74.6,12.9c5.1,13.9,7.4,24.4,8.6,31.1c0.4,2.2,0.8,4.5,1.1,7.4c0,0.2,0.2,1.6,0.3,3.2
		c0.5,5.8,1,11.9,0.1,19.3c-0.4,3-0.7,5.7-1.9,9.3c-0.6,1.9-1.5,4.4-3.4,7.4c-1.8,2.9-6.5,10.5-13.1,10.8c-1.1,0-2-0.1-2.6-0.3
		c-1.9-1.1-2.9-2.3-3.4-3c-0.8-1.3-1.2-2.6-1.6-4.1c-0.5-1.9-0.7-3.4-0.8-4.6c0-0.4-0.1-1.7-0.1-3.4c0-1,0.1-1.7,0.1-2.2
		c0-0.3,0.1-1.4,0.3-2.7c0,0,0,0,0,0c0.3-2,0.8-9.5,1-9.5c0.1,0,0,1.9,0.1,5.1c0,0,0.2,4.4,0.8,6.5c0,0.1,0.2,0.8,0.5,1.9
		c0.1,0.2,0.4,1.7,0.9,2.6c0.5,1,2.2,3.2,3.6,3.2c2.8,0.1,6-8.5,7.2-16.2c1.3-7.7,0.4-14-0.6-22.3c-0.5-3.7-1.3-8.1-2-10.7
		c-0.3-1.2-0.6-2.1-1.8-7.1c-0.8-3.2-0.9-3.5-1.1-4.1c-0.6-1.9-1.5-4.6-3.3-7.8L58.4,29l0.2-29l21.2,8.3L74.6,12.9z"/>
	<path class="st4" d="M48.2,93.5"/>
	<path class="st2" d="M98.2,83.2"/>
	<path class="st2" d="M83.8,87.3"/>
	<path class="st2" d="M100.2,83.2"/>
	<path class="st5" d="M84.3,80.2"/>
	<g>
		<path class="st3" d="M70.3,69.8c0.2-0.8,0.3-1.8,0.3-3c0-1.7-0.4-3.1-0.7-4.1c-10.2-0.2-17.9-0.2-23.2-0.2c-2.9,0-8.6-0.3-16-1.4
			c-7.8-1.2-8.9-2.4-8.9-3.1c0.1-2.6,19.5-4.8,27.4-4.9c0.1,0,0.2,0,0.4,0c10.5-0.2,14.4,0,14.4-0.1c0-0.2-14.8-1.8-33-1
			c-7.7,0.4-29.4,1.4-30.8,5.5c-1,2.9,8.3,6.9,14.7,8.3c1.8,0.4,3.8,0.8,6.1,1.2c0,0,0,0,0,0c0,0,0,0,0,0c0,0,7.6,1.2,15.1,2
			C41,69.3,53.4,70.1,70.3,69.8z"/>
		<path class="st3" d="M154.4,52.6l13.4,3.4c-7,1.1-12.8,1.8-16.8,2.1c-1.5,0.1-2,0.2-8.9,0.7c-10.7,0.8-12.6,1-15.2,1.2
			c-9.6,0.7-22.9,1.2-22.9,1.2c-1.7,0.1-3.3,0.2-5.1,0.2c-3.7,0.1-7.3,0.1-10.8,0c0.2,1.2,0.4,2.7,0.4,4.2c0.1,1.6,0,3.1-0.1,4.4
			c4.2-0.2,7.7-0.3,10.1-0.4c6.3-0.2,9.1-0.3,15.2-0.5c2.3-0.1,4.7-0.2,7.3-0.3c14.3-0.7,36.8-2.2,66.6-5.5l9.5,3.4L216,52.9
			L154.4,52.6z"/>
	</g>
	<path class="st6" d="M58,74.4"/>
	<path class="st6" d="M116.3,83.9"/>
	<path class="st6" d="M60.7,76"/>
	<path class="st6" d="M49.1,74.1"/>
	<g>
		<g>
			<path class="st3" d="M101.9,30.3l-3.5,13.4h-7.9l8.6-33.2h18.5c7.7,0,13,3.2,13,8.7c0,4.9-3.8,7.5-8.5,8.8
				c1.6,0.5,4.9,2.4,3.4,8.1c-1,3.5-1.3,6.2-1,7.7h-8c-0.3-1.5-0.1-3.6,1-7.5c1-4.1,0.1-5.9-5-5.9H101.9z M103.3,25.1h9.8
				c4.5,0,9.1-1,9.1-5.2c0-2.6-2.1-4.2-6.5-4.2h-10L103.3,25.1z"/>
			<path class="st3" d="M141.3,10.5H159c8,0,13.8,3.4,13.8,9.7c0,7.6-6.9,11.3-17.8,11.3h-11.3l-3,12.1h-7.9L141.3,10.5z M145,26.3
				h9.8c5.8,0,9.8-1.5,9.8-5.8c0-3.1-2.5-4.8-7.7-4.8h-9.1L145,26.3z"/>
			<path class="st3" d="M182.3,33.7c0.8,3.6,4.4,5.7,10.5,5.7c5,0,9.4-1.3,9.4-4.9c0-2.6-2-3.9-9.2-5.4c-10.2-2.1-14-4.4-14-9
				c0-5.8,6-10.2,16.7-10.2c13.2,0,16.6,5.7,16.9,9.7h-7.9c-0.4-2.1-2.3-4.7-9.5-4.7c-4.8,0-7.6,1.8-7.6,4.3c0,2.4,2.1,3.3,9.1,4.7
				c11.4,2.3,14,5.5,14,9.9c0,6.1-6.1,10.7-18.6,10.7c-10.7,0-17-3.6-17.8-10.7H182.3z"/>
		</g>
	</g>
	<polygon class="st7" points="188.8,33.6 180.1,33.6 180.1,33.6 188.8,33.6 	"/>
	<path class="st3" d="M94.5,76.9"/>
</g>
</svg>
